<svg xmlns="http://www.w3.org/2000/svg" viewBox="0 0 850 120" width="100%">
<style>
@keyframes ff0{0%,100%{transform:translate(0,0)}50%{transform:translate(13.4px,-6.8px)}}
@keyframes ff1{0%,100%{transform:translate(0,0)}50%{transform:translate(-17.0px,5.8px)}}
@keyframes ff2{0%,100%{transform:translate(0,0)}50%{transform:translate(-8.6px,-6.2px)}}
@keyframes ff3{0%,100%{transform:translate(0,0)}50%{transform:translate(11.1px,7.8px)}}
@keyframes ff4{0%,100%{transform:translate(0,0)}50%{transform:translate(-7.9px,1.0px)}}
@keyframes ff5{0%,100%{transform:translate(0,0)}50%{transform:translate(-17.6px,2.5px)}}
@keyframes ff6{0%,100%{transform:translate(0,0)}50%{transform:translate(19.4px,-0.5px)}}
@keyframes ff7{0%,100%{transform:translate(0,0)}50%{transform:translate(14.8px,-8.6px)}}
@keyframes pulse{0%,100%{opacity:0.5}50%{opacity:0.9}}
@keyframes fadeSlow{0%{opacity:0}100%{opacity:1}}
</style>
<defs><linearGradient id="fbg" x1="0%" y1="0%" x2="100%" y2="100%">
<stop offset="0%" stop-color="#0d1117"/><stop offset="50%" stop-color="#10151c"/><stop offset="100%" stop-color="#0d1117"/>
</linearGradient></defs>
<rect width="850" height="120" fill="url(#fbg)" rx="6"/>
<circle cx="0" cy="0" r="0.3" fill="#21262d" opacity="0.4"/>
<circle cx="0" cy="40" r="0.3" fill="#21262d" opacity="0.4"/>
<circle cx="0" cy="80" r="0.3" fill="#21262d" opacity="0.4"/>
<circle cx="40" cy="0" r="0.3" fill="#21262d" opacity="0.4"/>
<circle cx="40" cy="40" r="0.3" fill="#21262d" opacity="0.4"/>
<circle cx="40" cy="80" r="0.3" fill="#21262d" opacity="0.4"/>
<circle cx="80" cy="0" r="0.3" fill="#21262d" opacity="0.4"/>
<circle cx="80" cy="40" r="0.3" fill="#21262d" opacity="0.4"/>
<circle cx="80" cy="80" r="0.3" fill="#21262d" opacity="0.4"/>
<circle cx="120" cy="0" r="0.3" fill="#21262d" opacity="0.4"/>
<circle cx="120" cy="40" r="0.3" fill="#21262d" opacity="0.4"/>
<circle cx="120" cy="80" r="0.3" fill="#21262d" opacity="0.4"/>
<circle cx="160" cy="0" r="0.3" fill="#21262d" opacity="0.4"/>
<circle cx="160" cy="40" r="0.3" fill="#21262d" opacity="0.4"/>
<circle cx="160" cy="80" r="0.3" fill="#21262d" opacity="0.4"/>
<circle cx="200" cy="0" r="0.3" fill="#21262d" opacity="0.4"/>
<circle cx="200" cy="40" r="0.3" fill="#21262d" opacity="0.4"/>
<circle cx="200" cy="80" r="0.3" fill="#21262d" opacity="0.4"/>
<circle cx="240" cy="0" r="0.3" fill="#21262d" opacity="0.4"/>
<circle cx="240" cy="40" r="0.3" fill="#21262d" opacity="0.4"/>
<circle cx="240" cy="80" r="0.3" fill="#21262d" opacity="0.4"/>
<circle cx="280" cy="0" r="0.3" fill="#21262d" opacity="0.4"/>
<circle cx="280" cy="40" r="0.3" fill="#21262d" opacity="0.4"/>
<circle cx="280" cy="80" r="0.3" fill="#21262d" opacity="0.4"/>
<circle cx="320" cy="0" r="0.3" fill="#21262d" opacity="0.4"/>
<circle cx="320" cy="40" r="0.3" fill="#21262d" opacity="0.4"/>
<circle cx="320" cy="80" r="0.3" fill="#21262d" opacity="0.4"/>
<circle cx="360" cy="0" r="0.3" fill="#21262d" opacity="0.4"/>
<circle cx="360" cy="40" r="0.3" fill="#21262d" opacity="0.4"/>
<circle cx="360" cy="80" r="0.3" fill="#21262d" opacity="0.4"/>
<circle cx="400" cy="0" r="0.3" fill="#21262d" opacity="0.4"/>
<circle cx="400" cy="40" r="0.3" fill="#21262d" opacity="0.4"/>
<circle cx="400" cy="80" r="0.3" fill="#21262d" opacity="0.4"/>
<circle cx="440" cy="0" r="0.3" fill="#21262d" opacity="0.4"/>
<circle cx="440" cy="40" r="0.3" fill="#21262d" opacity="0.4"/>
<circle cx="440" cy="80" r="0.3" fill="#21262d" opacity="0.4"/>
<circle cx="480" cy="0" r="0.3" fill="#21262d" opacity="0.4"/>
<circle cx="480" cy="40" r="0.3" fill="#21262d" opacity="0.4"/>
<circle cx="480" cy="80" r="0.3" fill="#21262d" opacity="0.4"/>
<circle cx="520" cy="0" r="0.3" fill="#21262d" opacity="0.4"/>
<circle cx="520" cy="40" r="0.3" fill="#21262d" opacity="0.4"/>
<circle cx="520" cy="80" r="0.3" fill="#21262d" opacity="0.4"/>
<circle cx="560" cy="0" r="0.3" fill="#21262d" opacity="0.4"/>
<circle cx="560" cy="40" r="0.3" fill="#21262d" opacity="0.4"/>
<circle cx="560" cy="80" r="0.3" fill="#21262d" opacity="0.4"/>
<circle cx="600" cy="0" r="0.3" fill="#21262d" opacity="0.4"/>
<circle cx="600" cy="40" r="0.3" fill="#21262d" opacity="0.4"/>
<circle cx="600" cy="80" r="0.3" fill="#21262d" opacity="0.4"/>
<circle cx="640" cy="0" r="0.3" fill="#21262d" opacity="0.4"/>
<circle cx="640" cy="40" r="0.3" fill="#21262d" opacity="0.4"/>
<circle cx="640" cy="80" r="0.3" fill="#21262d" opacity="0.4"/>
<circle cx="680" cy="0" r="0.3" fill="#21262d" opacity="0.4"/>
<circle cx="680" cy="40" r="0.3" fill="#21262d" opacity="0.4"/>
<circle cx="680" cy="80" r="0.3" fill="#21262d" opacity="0.4"/>
<circle cx="720" cy="0" r="0.3" fill="#21262d" opacity="0.4"/>
<circle cx="720" cy="40" r="0.3" fill="#21262d" opacity="0.4"/>
<circle cx="720" cy="80" r="0.3" fill="#21262d" opacity="0.4"/>
<circle cx="760" cy="0" r="0.3" fill="#21262d" opacity="0.4"/>
<circle cx="760" cy="40" r="0.3" fill="#21262d" opacity="0.4"/>
<circle cx="760" cy="80" r="0.3" fill="#21262d" opacity="0.4"/>
<circle cx="800" cy="0" r="0.3" fill="#21262d" opacity="0.4"/>
<circle cx="800" cy="40" r="0.3" fill="#21262d" opacity="0.4"/>
<circle cx="800" cy="80" r="0.3" fill="#21262d" opacity="0.4"/>
<circle cx="840" cy="0" r="0.3" fill="#21262d" opacity="0.4"/>
<circle cx="840" cy="40" r="0.3" fill="#21262d" opacity="0.4"/>
<circle cx="840" cy="80" r="0.3" fill="#21262d" opacity="0.4"/>
<circle cx="259" cy="31" r="2.3" fill="#EA4335" opacity="0.34" style="animation:ff0 19s ease-in-out 5s infinite"/>
<circle cx="150" cy="10" r="2.8" fill="#34A853" opacity="0.33" style="animation:ff1 18s ease-in-out 5s infinite"/>
<circle cx="172" cy="109" r="2.5" fill="#4285F4" opacity="0.24" style="animation:ff2 10s ease-in-out 4s infinite"/>
<circle cx="545" cy="42" r="2.5" fill="#FBBC05" opacity="0.13" style="animation:ff3 12s ease-in-out 4s infinite"/>
<circle cx="589" cy="103" r="1.0" fill="#FBBC05" opacity="0.26" style="animation:ff4 15s ease-in-out 2s infinite"/>
<circle cx="598" cy="31" r="1.4" fill="#FBBC05" opacity="0.17" style="animation:ff5 12s ease-in-out 2s infinite"/>
<circle cx="605" cy="88" r="2.6" fill="#4285F4" opacity="0.20" style="animation:ff6 11s ease-in-out 4s infinite"/>
<circle cx="695" cy="55" r="2.9" fill="#FBBC05" opacity="0.14" style="animation:ff7 12s ease-in-out 7s infinite"/>
<circle cx="48" cy="98" r="2.7" fill="#4285F4" opacity="0.33" style="animation:ff0 14s ease-in-out 6s infinite"/>
<circle cx="529" cy="39" r="2.5" fill="#FBBC05" opacity="0.33" style="animation:ff1 11s ease-in-out 5s infinite"/>
<circle cx="638" cy="25" r="2.1" fill="#34A853" opacity="0.14" style="animation:ff2 11s ease-in-out 3s infinite"/>
<circle cx="304" cy="110" r="1.5" fill="#4285F4" opacity="0.16" style="animation:ff3 20s ease-in-out 2s infinite"/>
<circle cx="496" cy="33" r="2.8" fill="#FBBC05" opacity="0.23" style="animation:ff4 14s ease-in-out 6s infinite"/>
<circle cx="438" cy="29" r="1.6" fill="#4285F4" opacity="0.28" style="animation:ff5 11s ease-in-out 7s infinite"/>
<circle cx="640" cy="29" r="1.3" fill="#FBBC05" opacity="0.13" style="animation:ff6 19s ease-in-out 7s infinite"/>
<circle cx="721" cy="71" r="2.1" fill="#4285F4" opacity="0.10" style="animation:ff7 13s ease-in-out 3s infinite"/>
<circle cx="91" cy="92" r="2.0" fill="#FBBC05" opacity="0.15" style="animation:ff0 19s ease-in-out 7s infinite"/>
<circle cx="393" cy="99" r="1.0" fill="#FBBC05" opacity="0.14" style="animation:ff1 16s ease-in-out 3s infinite"/>
<circle cx="309" cy="93" r="2.6" fill="#34A853" opacity="0.25" style="animation:ff2 19s ease-in-out 1s infinite"/>
<circle cx="190" cy="48" r="3.0" fill="#EA4335" opacity="0.16" style="animation:ff3 17s ease-in-out 5s infinite"/>
<circle cx="722" cy="95" r="2.9" fill="#FBBC05" opacity="0.14" style="animation:ff4 18s ease-in-out 3s infinite"/>
<circle cx="696" cy="44" r="2.6" fill="#FBBC05" opacity="0.19" style="animation:ff5 16s ease-in-out 4s infinite"/>
<circle cx="29" cy="67" r="1.7" fill="#FBBC05" opacity="0.27" style="animation:ff6 16s ease-in-out 8s infinite"/>
<circle cx="585" cy="62" r="1.1" fill="#EA4335" opacity="0.19" style="animation:ff7 13s ease-in-out 3s infinite"/>
<circle cx="766" cy="50" r="2.6" fill="#4285F4" opacity="0.28" style="animation:ff0 17s ease-in-out 7s infinite"/>
<line x1="483" y1="101" x2="478" y2="48" stroke="#EA4335" stroke-width="0.4" opacity="0.027" style="animation:pulse 6s ease-in-out infinite"/>
<line x1="483" y1="101" x2="485" y2="66" stroke="#4285F4" stroke-width="0.4" opacity="0.045" style="animation:pulse 6s ease-in-out infinite"/>
<line x1="483" y1="101" x2="554" y2="77" stroke="#34A853" stroke-width="0.4" opacity="0.010" style="animation:pulse 6s ease-in-out infinite"/>
<line x1="483" y1="101" x2="451" y2="104" stroke="#FBBC05" stroke-width="0.4" opacity="0.047" style="animation:pulse 6s ease-in-out infinite"/>
<line x1="420" y1="15" x2="478" y2="48" stroke="#4285F4" stroke-width="0.4" opacity="0.013" style="animation:pulse 6s ease-in-out infinite"/>
<line x1="221" y1="53" x2="191" y2="42" stroke="#4285F4" stroke-width="0.4" opacity="0.048" style="animation:pulse 6s ease-in-out infinite"/>
<line x1="221" y1="53" x2="177" y2="29" stroke="#4285F4" stroke-width="0.4" opacity="0.030" style="animation:pulse 6s ease-in-out infinite"/>
<line x1="221" y1="53" x2="219" y2="101" stroke="#FBBC05" stroke-width="0.4" opacity="0.031" style="animation:pulse 6s ease-in-out infinite"/>
<line x1="631" y1="31" x2="585" y2="72" stroke="#4285F4" stroke-width="0.4" opacity="0.019" style="animation:pulse 6s ease-in-out infinite"/>
<line x1="631" y1="31" x2="610" y2="104" stroke="#4285F4" stroke-width="0.4" opacity="0.010" style="animation:pulse 6s ease-in-out infinite"/>
<line x1="631" y1="31" x2="653" y2="38" stroke="#34A853" stroke-width="0.4" opacity="0.057" style="animation:pulse 6s ease-in-out infinite"/>
<line x1="631" y1="31" x2="616" y2="29" stroke="#4285F4" stroke-width="0.4" opacity="0.065" style="animation:pulse 6s ease-in-out infinite"/>
<line x1="631" y1="31" x2="686" y2="43" stroke="#34A853" stroke-width="0.4" opacity="0.023" style="animation:pulse 6s ease-in-out infinite"/>
<line x1="77" y1="99" x2="88" y2="60" stroke="#EA4335" stroke-width="0.4" opacity="0.040" style="animation:pulse 6s ease-in-out infinite"/>
<line x1="77" y1="99" x2="139" y2="83" stroke="#EA4335" stroke-width="0.4" opacity="0.016" style="animation:pulse 6s ease-in-out infinite"/>
<line x1="77" y1="99" x2="124" y2="47" stroke="#EA4335" stroke-width="0.4" opacity="0.010" style="animation:pulse 6s ease-in-out infinite"/>
<line x1="77" y1="99" x2="63" y2="36" stroke="#FBBC05" stroke-width="0.4" opacity="0.016" style="animation:pulse 6s ease-in-out infinite"/>
<line x1="585" y1="72" x2="610" y2="104" stroke="#EA4335" stroke-width="0.4" opacity="0.039" style="animation:pulse 6s ease-in-out infinite"/>
<line x1="585" y1="72" x2="546" y2="38" stroke="#34A853" stroke-width="0.4" opacity="0.029" style="animation:pulse 6s ease-in-out infinite"/>
<line x1="585" y1="72" x2="653" y2="38" stroke="#4285F4" stroke-width="0.4" opacity="0.010" style="animation:pulse 6s ease-in-out infinite"/>
<line x1="585" y1="72" x2="554" y2="77" stroke="#FBBC05" stroke-width="0.4" opacity="0.049" style="animation:pulse 6s ease-in-out infinite"/>
<line x1="585" y1="72" x2="616" y2="29" stroke="#FBBC05" stroke-width="0.4" opacity="0.027" style="animation:pulse 6s ease-in-out infinite"/>
<line x1="610" y1="104" x2="653" y2="38" stroke="#EA4335" stroke-width="0.4" opacity="0.010" style="animation:pulse 6s ease-in-out infinite"/>
<line x1="610" y1="104" x2="554" y2="77" stroke="#34A853" stroke-width="0.4" opacity="0.018" style="animation:pulse 6s ease-in-out infinite"/>
<line x1="610" y1="104" x2="616" y2="29" stroke="#EA4335" stroke-width="0.4" opacity="0.010" style="animation:pulse 6s ease-in-out infinite"/>
<line x1="546" y1="38" x2="478" y2="48" stroke="#34A853" stroke-width="0.4" opacity="0.011" style="animation:pulse 6s ease-in-out infinite"/>
<line x1="546" y1="38" x2="485" y2="66" stroke="#EA4335" stroke-width="0.4" opacity="0.012" style="animation:pulse 6s ease-in-out infinite"/>
<line x1="546" y1="38" x2="554" y2="77" stroke="#FBBC05" stroke-width="0.4" opacity="0.041" style="animation:pulse 6s ease-in-out infinite"/>
<line x1="546" y1="38" x2="616" y2="29" stroke="#EA4335" stroke-width="0.4" opacity="0.010" style="animation:pulse 6s ease-in-out infinite"/>
<line x1="88" y1="60" x2="139" y2="83" stroke="#FBBC05" stroke-width="0.4" opacity="0.025" style="animation:pulse 6s ease-in-out infinite"/>
<line x1="88" y1="60" x2="124" y2="47" stroke="#FBBC05" stroke-width="0.4" opacity="0.042" style="animation:pulse 6s ease-in-out infinite"/>
<line x1="88" y1="60" x2="63" y2="36" stroke="#EA4335" stroke-width="0.4" opacity="0.045" style="animation:pulse 6s ease-in-out infinite"/>
<line x1="139" y1="83" x2="124" y2="47" stroke="#34A853" stroke-width="0.4" opacity="0.040" style="animation:pulse 6s ease-in-out infinite"/>
<line x1="139" y1="83" x2="191" y2="42" stroke="#4285F4" stroke-width="0.4" opacity="0.014" style="animation:pulse 6s ease-in-out infinite"/>
<line x1="139" y1="83" x2="177" y2="29" stroke="#EA4335" stroke-width="0.4" opacity="0.014" style="animation:pulse 6s ease-in-out infinite"/>
<line x1="124" y1="47" x2="191" y2="42" stroke="#EA4335" stroke-width="0.4" opacity="0.014" style="animation:pulse 6s ease-in-out infinite"/>
<line x1="124" y1="47" x2="63" y2="36" stroke="#FBBC05" stroke-width="0.4" opacity="0.018" style="animation:pulse 6s ease-in-out infinite"/>
<line x1="124" y1="47" x2="177" y2="29" stroke="#4285F4" stroke-width="0.4" opacity="0.025" style="animation:pulse 6s ease-in-out infinite"/>
<line x1="191" y1="42" x2="177" y2="29" stroke="#4285F4" stroke-width="0.4" opacity="0.061" style="animation:pulse 6s ease-in-out infinite"/>
<line x1="191" y1="42" x2="219" y2="101" stroke="#EA4335" stroke-width="0.4" opacity="0.015" style="animation:pulse 6s ease-in-out infinite"/>
<line x1="478" y1="48" x2="485" y2="66" stroke="#FBBC05" stroke-width="0.4" opacity="0.061" style="animation:pulse 6s ease-in-out infinite"/>
<line x1="478" y1="48" x2="451" y2="104" stroke="#4285F4" stroke-width="0.4" opacity="0.018" style="animation:pulse 6s ease-in-out infinite"/>
<line x1="653" y1="38" x2="616" y2="29" stroke="#FBBC05" stroke-width="0.4" opacity="0.042" style="animation:pulse 6s ease-in-out infinite"/>
<line x1="653" y1="38" x2="730" y2="38" stroke="#4285F4" stroke-width="0.4" opacity="0.010" style="animation:pulse 6s ease-in-out infinite"/>
<line x1="653" y1="38" x2="686" y2="43" stroke="#FBBC05" stroke-width="0.4" opacity="0.046" style="animation:pulse 6s ease-in-out infinite"/>
<line x1="653" y1="38" x2="693" y2="107" stroke="#FBBC05" stroke-width="0.4" opacity="0.010" style="animation:pulse 6s ease-in-out infinite"/>
<line x1="485" y1="66" x2="554" y2="77" stroke="#FBBC05" stroke-width="0.4" opacity="0.010" style="animation:pulse 6s ease-in-out infinite"/>
<line x1="485" y1="66" x2="451" y2="104" stroke="#EA4335" stroke-width="0.4" opacity="0.029" style="animation:pulse 6s ease-in-out infinite"/>
<line x1="766" y1="51" x2="730" y2="38" stroke="#4285F4" stroke-width="0.4" opacity="0.042" style="animation:pulse 6s ease-in-out infinite"/>
<line x1="554" y1="77" x2="616" y2="29" stroke="#EA4335" stroke-width="0.4" opacity="0.010" style="animation:pulse 6s ease-in-out infinite"/>
<line x1="616" y1="29" x2="686" y2="43" stroke="#EA4335" stroke-width="0.4" opacity="0.010" style="animation:pulse 6s ease-in-out infinite"/>
<line x1="730" y1="38" x2="686" y2="43" stroke="#EA4335" stroke-width="0.4" opacity="0.036" style="animation:pulse 6s ease-in-out infinite"/>
<line x1="730" y1="38" x2="693" y2="107" stroke="#FBBC05" stroke-width="0.4" opacity="0.010" style="animation:pulse 6s ease-in-out infinite"/>
<line x1="686" y1="43" x2="693" y2="107" stroke="#FBBC05" stroke-width="0.4" opacity="0.015" style="animation:pulse 6s ease-in-out infinite"/>
<text x="425" y="50" font-family="Google Sans,Segoe UI,Arial,sans-serif" font-size="13" fill="#8b949e" text-anchor="middle" opacity="0.7" style="animation:fadeSlow 1s ease-out both">build something interesting, Why not?</text>
<circle cx="404" cy="75" r="3" fill="#4285F4" opacity="0.7" style="animation:pulse 4s ease-in-out 0.0s infinite"/>
<circle cx="418" cy="75" r="3" fill="#EA4335" opacity="0.7" style="animation:pulse 4s ease-in-out 0.3s infinite"/>
<circle cx="432" cy="75" r="3" fill="#FBBC05" opacity="0.7" style="animation:pulse 4s ease-in-out 0.6s infinite"/>
<circle cx="446" cy="75" r="3" fill="#34A853" opacity="0.7" style="animation:pulse 4s ease-in-out 0.9s infinite"/>
<text x="425" y="105" font-family="monospace" font-size="10" fill="#484f58" text-anchor="middle" style="animation:fadeSlow 1.5s ease-out 0.5s both">Made with ❤️ and curiosity</text>
</svg>