<svg xmlns="http://www.w3.org/2000/svg" viewBox="0 0 850 200" width="100%">
<style>@keyframes cardSlide{0%{opacity:0;transform:translateY(10px)}100%{opacity:1;transform:translateY(0)}}</style>
<rect width="850" height="200" fill="#0d1117" rx="8"/>
<text x="24" y="30" font-family="Google Sans,Segoe UI,sans-serif" font-size="16" font-weight="600" fill="#34A853">Featured Projects</text>
<circle cx="810" cy="26" r="2.5" fill="#4285F4" opacity="0.5"/>
<circle cx="820" cy="26" r="2.5" fill="#EA4335" opacity="0.5"/>
<circle cx="830" cy="26" r="2.5" fill="#FBBC05" opacity="0.5"/>
<circle cx="840" cy="26" r="2.5" fill="#34A853" opacity="0.5"/>
<g style="animation:cardSlide 0.5s ease-out 0.00s both">
<rect x="16" y="48" width="401" height="142" fill="#161b22" rx="8" stroke="#21262d" stroke-width="1"/>
<rect x="16" y="48" width="4" height="142" fill="#4285F4" rx="2"/>
<circle cx="46" cy="78" r="16" fill="#4285F4" opacity="0.15"/>
<text x="46" y="83" font-family="sans-serif" font-size="16" fill="#4285F4" text-anchor="middle">G</text>
<text x="71" y="76" font-family="Google Sans,Segoe UI,sans-serif" font-size="16" font-weight="600" fill="#e6edf3">GemMate</text>
<text x="71" y="92" font-family="monospace" font-size="11" fill="#4285F4">&#9733; 8</text>
<text x="36" y="118" font-family="Google Sans,Segoe UI,sans-serif" font-size="12" fill="#8b949e">Your sovereign, zero-cost AI study companion -</text>
<text x="36" y="136" font-family="Google Sans,Segoe UI,sans-serif" font-size="12" fill="#8b949e">running Gemma 4 entirely on your own hardware.</text>
</g>
<g style="animation:cardSlide 0.5s ease-out 0.15s both">
<rect x="433" y="48" width="401" height="142" fill="#161b22" rx="8" stroke="#21262d" stroke-width="1"/>
<rect x="433" y="48" width="4" height="142" fill="#EA4335" rx="2"/>
<circle cx="463" cy="78" r="16" fill="#EA4335" opacity="0.15"/>
<text x="463" y="83" font-family="sans-serif" font-size="16" fill="#EA4335" text-anchor="middle">I</text>
<text x="488" y="76" font-family="Google Sans,Segoe UI,sans-serif" font-size="16" font-weight="600" fill="#e6edf3">InSeeVision</text>
<text x="488" y="92" font-family="monospace" font-size="11" fill="#EA4335">&#9733; 3</text>
<text x="453" y="118" font-family="Google Sans,Segoe UI,sans-serif" font-size="12" fill="#8b949e">Edge-AI powered vision assistance for the</text>
<text x="453" y="136" font-family="Google Sans,Segoe UI,sans-serif" font-size="12" fill="#8b949e">visually impaired.</text>
</g>
</svg>